<?xml version="1.0" encoding="utf-8"?>
<!-- Generator: Adobe Illustrator 18.1.1, SVG Export Plug-In . SVG Version: 6.00 Build 0)  -->
<!DOCTYPE svg PUBLIC "-//W3C//DTD SVG 1.1//EN" "http://www.w3.org/Graphics/SVG/1.1/DTD/svg11.dtd">
<svg version="1.1" id="Layer_1" xmlns="http://www.w3.org/2000/svg" xmlns:xlink="http://www.w3.org/1999/xlink" x="0px" y="0px"
	 width="62.7px" height="63.1px" viewBox="-580 365.9 62.7 63.1" enable-background="new -580 365.9 62.7 63.1"
	 xml:space="preserve">
<g>
	<path fill="#663300" d="M-527.6,392.8c0.7,2.6,1.1,5.5,1.1,8.4c0,0.3,0,0.7,0,1l3.4,1.3l2.8-2.4l2.2,2.6l-4.3,3.5l-4.4-1.8
		c-0.5,3.9-1.7,7.6-3.4,10.7l0.6-0.8l3.3,1.9l3.2-1.9l1.8,2.9l-4.7,2.9l-5.2-3.1c-4.1,6.3-10.4,10.4-17.5,10.4
		c-7.1,0-13.4-4.1-17.5-10.4l-5.1,3l-4.7-2.9l1.8-2.9l3.2,1.9l3.3-1.9l0.2,0.3c-1.6-3-2.7-6.5-3.1-10.2l-4.3,1.7l-4.3-3.5l2.2-2.6
		l2.8,2.4l3.3-1.3c0-0.4,0-0.7,0-1.1c0-2.9,0.4-5.7,1.1-8.4l-5.6-0.2l-2.4-4.9l3-1.5l1.6,3.3l3.8,0.2l0.1,1.1
		c2.3-6.8,6.8-12.3,12.4-15c0.1-2.1,1.8-3.8,4-3.8h9.3c2.2,0,4,1.8,4,4c0,0.1,0,0.2,0,0.3c5.3,2.9,9.5,8.3,11.6,14.9l0.1-1.5
		l3.8-0.2l1.6-3.3l3,1.5l-2.4,4.9L-527.6,392.8z"/>
	<polygon fill="#663300" points="-537.5,368.5 -537.9,369.6 -538.6,370 -540,370.4 -541.2,371 -542.9,372 -542.9,371 -541,369.6 
		-539.6,369.2 -538.4,368.5 -537.7,367 -536.4,366.5 -536.7,367.9 	"/>
	<polygon fill="#663300" points="-556.6,370.4 -558,370 -558.7,369.6 -559.1,368.5 -559.9,367.9 -560.2,366.5 -558.9,367 
		-558.2,368.5 -557,369.2 -555.6,369.6 -553.7,371 -553.7,372 -555.4,371 	"/>
</g>
</svg>
